<svg width="20" height="20" viewBox="0 0 20 20" fill="none" xmlns="http://www.w3.org/2000/svg">
<path d="M0.536589 0.0307787C0.631075 0.00284219 0.730139 -0.00620305 0.828122 0.00415974C0.926104 0.0145225 1.02108 0.0440902 1.10764 0.0911735C1.19419 0.138257 1.27061 0.201933 1.33255 0.278563C1.39448 0.355193 1.44071 0.443276 1.46859 0.537779L2.01859 2.40078H16.6736C18.5136 2.40078 19.9186 4.11778 19.3886 5.91078L17.7336 11.5108C17.3816 12.7038 16.2626 13.5008 15.0186 13.5008H5.86259C4.61859 13.5008 3.50059 12.7038 3.14759 11.5108L0.0305889 0.962779C-0.0255662 0.772223 -0.00382551 0.567172 0.0910394 0.392628C0.185904 0.218084 0.346143 0.0873068 0.536589 0.0307787ZM3.99959 17.2508C3.99959 16.654 4.23664 16.0817 4.6586 15.6598C5.08056 15.2378 5.65285 15.0008 6.24959 15.0008C6.84633 15.0008 7.41862 15.2378 7.84058 15.6598C8.26254 16.0817 8.49959 16.654 8.49959 17.2508C8.49959 17.8475 8.26254 18.4198 7.84058 18.8418C7.41862 19.2637 6.84633 19.5008 6.24959 19.5008C5.65285 19.5008 5.08056 19.2637 4.6586 18.8418C4.23664 18.4198 3.99959 17.8475 3.99959 17.2508ZM11.9996 17.2508C11.9996 16.9553 12.0578 16.6627 12.1709 16.3897C12.2839 16.1168 12.4497 15.8687 12.6586 15.6598C12.8675 15.4509 13.1156 15.2851 13.3886 15.172C13.6615 15.059 13.9541 15.0008 14.2496 15.0008C14.5451 15.0008 14.8376 15.059 15.1106 15.172C15.3836 15.2851 15.6316 15.4509 15.8406 15.6598C16.0495 15.8687 16.2152 16.1168 16.3283 16.3897C16.4414 16.6627 16.4996 16.9553 16.4996 17.2508C16.4996 17.8475 16.2625 18.4198 15.8406 18.8418C15.4186 19.2637 14.8463 19.5008 14.2496 19.5008C13.6529 19.5008 13.0806 19.2637 12.6586 18.8418C12.2366 18.4198 11.9996 17.8475 11.9996 17.2508Z" fill="#1C1826"/>
</svg>
