<svg width="80" height="80" viewBox="0 0 80 80" fill="none" xmlns="http://www.w3.org/2000/svg">
<path d="M11.6763 34.0397C12.6253 35.8905 13.1017 36.8193 13.2379 37.5916C13.374 38.3637 13.244 39.3994 12.9855 41.4631C12.9204 41.9824 12.8478 42.5606 12.7701 43.2104C12.3429 46.7841 14.2789 50.1373 17.5875 51.5546C18.1891 51.8123 18.7261 52.0385 19.2081 52.2418L19.4633 52.3495L11.8388 68.7256C11.6806 69.0655 11.6185 69.4422 11.6594 69.8149C11.7002 70.1875 11.8424 70.5419 12.0705 70.8394C12.2985 71.1369 12.6038 71.3663 12.953 71.5025C13.3023 71.6387 13.6822 71.6767 14.0515 71.6122L22.4321 70.148L26.7064 77.5037C26.8948 77.8279 27.1684 78.0943 27.4975 78.2739C27.8266 78.4535 28.1986 78.5394 28.5731 78.5224C28.9477 78.5055 29.3104 78.3861 29.6219 78.1775C29.9334 77.9688 30.1817 77.6788 30.3399 77.3389L37.9087 61.0819L37.7592 61.0125C39.0552 60.6204 39.8198 60.4232 40.4468 60.4232C41.2309 60.4232 42.2284 60.7309 44.2157 61.3443L44.8742 61.5471L50.3365 74.2287C50.4847 74.5731 50.7246 74.8703 51.0299 75.0879C51.3352 75.3055 51.6943 75.4353 52.0682 75.4631C52.4421 75.491 52.8165 75.4158 53.1506 75.2458C53.4848 75.0757 53.766 74.8174 53.9636 74.4987L58.4494 67.2702L66.7837 68.9772C67.1509 69.0524 67.5318 69.0256 67.8849 68.8996C68.238 68.7735 68.5498 68.5531 68.7865 68.2623C69.0231 67.9715 69.1755 67.6214 69.2272 67.2501C69.2788 66.8788 69.2277 66.5004 69.0794 66.156L62.8709 51.741C63.0161 51.6793 63.1613 51.6173 63.3063 51.5551C66.6149 50.1381 68.5509 46.7846 68.1237 43.2109C68.046 42.5611 67.9737 41.9829 67.9086 41.4639C67.6496 39.4002 67.5198 38.3645 67.656 37.5921C67.7922 36.8201 68.2686 35.891 69.2174 34.0404C69.4561 33.5748 69.722 33.0563 70.0174 32.4724C71.6413 29.2602 70.9687 25.447 68.3445 22.984C67.9165 22.5827 67.4872 22.1827 67.0567 21.784C65.5321 20.3693 64.7666 19.6595 64.3746 18.9803C63.9825 18.3013 63.7502 17.2835 63.2879 15.256C63.1714 14.7457 63.0419 14.1775 62.8925 13.5403C62.0716 10.0358 59.1054 7.54692 55.5116 7.34717C54.8582 7.31076 54.2764 7.28204 53.7538 7.25588C51.6766 7.15254 50.6339 7.10049 49.897 6.83227C49.16 6.56406 48.3279 5.93377 46.6704 4.67782C46.2532 4.3619 45.7888 4.01009 45.265 3.61777C42.3836 1.46074 38.5116 1.46074 35.6302 3.61777C35.1063 4.01009 34.6419 4.3619 34.2247 4.67782C32.567 5.93377 31.7351 6.56406 30.9982 6.83227C30.2612 7.10049 29.2189 7.15254 27.1413 7.25588C26.6187 7.28204 26.0367 7.31076 25.3835 7.34717C21.7898 7.54718 18.8235 10.036 18.0027 13.5403C17.8535 14.1775 17.724 14.7455 17.6073 15.2557C17.1447 17.2835 16.9126 18.301 16.5203 18.9803C16.1282 19.6593 15.3628 20.3693 13.8384 21.7837C13.4079 22.1825 12.9786 22.5825 12.5504 22.9838C9.92591 25.447 9.25357 29.26 10.8772 32.4722C11.1417 32.9956 11.4081 33.5181 11.6763 34.0397ZM28.2793 72.044L25.2612 66.8502C25.0504 66.4875 24.7336 66.1982 24.3533 66.0212C23.9731 65.8442 23.5477 65.7879 23.1345 65.8601L17.217 66.894L23.0663 54.3306C23.5504 54.8699 24.0907 55.7058 24.9822 57.0866C25.2661 57.5264 25.5823 58.0159 25.9405 58.5639C27.4624 60.8909 29.9797 62.2105 32.6349 62.2105C32.71 62.2105 32.7859 62.2043 32.8613 62.2023L28.2793 72.044ZM57.8717 62.9636C57.4608 62.8794 57.034 62.9233 56.6487 63.0892C56.2635 63.2552 55.9384 63.5352 55.7172 63.8916L52.5499 68.9957L49.578 62.0956C51.7291 61.7345 53.6864 60.5006 54.9529 58.5639C55.2737 58.0726 55.593 57.5804 55.9108 57.0872C57.0391 55.3399 57.6053 54.4629 58.2061 53.9588C58.4405 53.7621 58.7312 53.5801 59.1113 53.3836L63.7563 64.1688L57.8717 62.9636ZM15.3572 25.9749C15.828 25.5331 16.2493 25.1421 16.628 24.791C20.2692 21.4132 20.5018 21.0101 21.6067 16.1678C21.7216 15.6645 21.8493 15.1042 21.9967 14.4754C22.405 12.7328 23.8237 11.5425 25.6107 11.443C26.2554 11.4071 26.8293 11.3786 27.3449 11.3527C32.3057 11.1058 32.7429 10.9466 36.7018 7.9472C37.1131 7.63539 37.5715 7.28819 38.0885 6.90125C38.8049 6.36482 39.626 6.09685 40.4473 6.09685C41.2684 6.09685 42.0894 6.36482 42.8061 6.90125C43.2695 7.24828 43.7316 7.59684 44.1926 7.94694C48.1515 10.9463 48.5887 11.1053 53.5495 11.3525C54.0651 11.3781 54.639 11.4066 55.2836 11.4427C57.0709 11.5422 58.4894 12.7325 58.8977 14.4752C59.0448 15.1039 59.1728 15.6645 59.2877 16.1678C60.3923 21.0098 60.6249 21.4129 64.2664 24.7908C64.6911 25.1841 65.1146 25.5788 65.5369 25.9747C66.8421 27.1996 67.1637 29.0233 66.3559 30.6208C66.0646 31.197 65.8023 31.7085 65.5669 32.1678C63.3007 36.5875 63.2199 37.0457 63.8379 41.9739C63.902 42.486 63.9735 43.0562 64.0502 43.6973C64.2628 45.4746 63.3368 47.0782 61.6914 47.7829C61.098 48.037 60.5682 48.2603 60.0923 48.4609C55.5154 50.3897 55.159 50.6886 52.4645 54.8611C52.1509 55.3477 51.8359 55.8333 51.5194 56.3179C50.5398 57.8156 48.8 58.449 47.0861 57.9315C46.4681 57.7446 45.9189 57.5754 45.4258 57.4231C40.6801 55.9589 40.2147 55.9586 35.4681 57.4231C34.975 57.5754 34.4258 57.7446 33.8078 57.9315C32.0949 58.4493 30.354 57.8159 29.3745 56.3179C29.0579 55.8332 28.7428 55.3475 28.4291 54.8609C25.7348 50.6886 25.3784 50.3894 20.8013 48.4609C20.3256 48.2603 19.7961 48.0372 19.2025 47.7829C17.557 47.0782 16.6311 45.4746 16.8437 43.697C16.9203 43.056 16.9919 42.4854 17.0562 41.9734C17.6742 37.0452 17.5934 36.5872 15.3269 32.1673C15.0915 31.708 14.8292 31.1967 14.5379 30.6205C13.7304 29.0236 14.052 27.1999 15.3572 25.9749ZM40.4466 50.9135C50.8183 50.9135 59.2564 42.4755 59.2564 32.1037C59.2564 21.7319 50.8183 13.2941 40.4466 13.2941C30.0748 13.2941 21.637 21.7322 21.637 32.1037C21.637 42.4755 30.075 50.9135 40.4466 50.9135ZM40.4466 17.3966C48.5559 17.3966 55.1536 23.9941 55.1536 32.1034C55.1536 40.2128 48.5562 46.8105 40.4466 46.8105C32.3369 46.8105 25.7397 40.213 25.7397 32.1034C25.7397 23.9938 32.3372 17.3966 40.4466 17.3966ZM35.2245 39.3727L29.9453 34.0933C29.7548 33.9028 29.6037 33.6767 29.5006 33.4278C29.3975 33.1789 29.3445 32.9122 29.3445 32.6428C29.3445 32.3734 29.3975 32.1067 29.5006 31.8578C29.6037 31.609 29.7548 31.3828 29.9453 31.1924C30.1358 31.0019 30.3619 30.8508 30.6108 30.7477C30.8596 30.6446 31.1264 30.5915 31.3957 30.5915C31.6651 30.5915 31.9319 30.6446 32.1807 30.7477C32.4296 30.8508 32.6557 31.0019 32.8462 31.1924L36.7436 35.09L48.1189 24.7664C48.5219 24.4008 49.0535 24.2102 49.597 24.2365C50.1404 24.2629 50.6511 24.504 51.0168 24.9069C51.3824 25.3099 51.573 25.8415 51.5467 26.385C51.5203 26.9284 51.2792 27.4391 50.8763 27.8048L38.0536 39.4415C37.6766 39.7844 37.185 39.9742 36.6753 39.9738C36.4059 39.974 36.139 39.921 35.89 39.8179C35.6411 39.7147 35.4149 39.5635 35.2245 39.3727Z" fill="#EB235C"/>
</svg>
