<svg width="80" height="80" viewBox="0 0 80 80" fill="none" xmlns="http://www.w3.org/2000/svg">
<g clip-path="url(#clip0_51_144)">
<path d="M79.2943 38.5234L75.3776 26.7184C74.3609 23.65 71.5443 21.6667 68.2043 21.6667H57.7176L58.1009 18.5417C58.1887 17.8876 58.1364 17.2223 57.9477 16.5899C57.7589 15.9575 57.4379 15.3724 57.0059 14.8734C56.5676 14.3844 56.0304 13.9943 55.4299 13.7288C54.8293 13.4633 54.1792 13.3285 53.5226 13.3334H13.1276C10.4609 13.3334 8.04092 15.4884 7.73258 18.1217L7.51925 19.7884C7.49143 20.0055 7.50666 20.226 7.56406 20.4372C7.62145 20.6485 7.7199 20.8463 7.85378 21.0195C7.98765 21.1927 8.15433 21.3378 8.3443 21.4466C8.53426 21.5553 8.74379 21.6256 8.96092 21.6534C9.1784 21.6837 9.39976 21.6703 9.61199 21.6139C9.82422 21.5575 10.023 21.4593 10.1968 21.325C10.3705 21.1907 10.5157 21.023 10.6237 20.8318C10.7317 20.6407 10.8005 20.4298 10.8259 20.2117L11.0409 18.5267C11.1559 17.535 12.1309 16.6667 13.1276 16.6667H53.5226C53.9226 16.6667 54.2709 16.8134 54.5059 17.0784C54.6269 17.2229 54.7153 17.3918 54.7651 17.5736C54.8148 17.7554 54.8248 17.9457 54.7942 18.1317L50.8909 50.0017H7.13758C7.14261 49.5984 6.99945 49.2073 6.73525 48.9025C6.47105 48.5978 6.10419 48.4006 5.70425 48.3484C5.48704 48.3209 5.26654 48.3366 5.05542 48.3945C4.84429 48.4525 4.64671 48.5517 4.47402 48.6862C4.30133 48.8208 4.15694 48.9882 4.04915 49.1788C3.94136 49.3694 3.87229 49.5794 3.84592 49.7967L3.22425 54.8084C3.14098 55.4648 3.19774 56.1314 3.39079 56.7642C3.58383 57.3971 3.90879 57.9819 4.34425 58.48C4.77851 58.9665 5.31212 59.354 5.90903 59.6166C6.50593 59.8791 7.15223 60.0104 7.80425 60.0017H11.0309C11.0559 61.6567 11.6026 63.2 12.6792 64.4134C13.9642 65.8667 15.7942 66.6684 17.8276 66.6684C21.6409 66.6684 25.1076 63.7267 25.8876 60.0017H54.7659C54.7909 61.6567 55.3376 63.1984 56.4109 64.4117C57.6976 65.8667 59.5276 66.6684 61.5626 66.6684C65.3743 66.6684 68.8409 63.7267 69.6226 60.0017H73.2109C75.9076 60.0017 78.2776 57.8934 78.6059 55.205L79.8859 44.7667C80.157 42.6682 79.9554 40.5356 79.2959 38.525L79.2943 38.5234ZM75.7193 38.3334H65.6759L66.4676 31.87C66.4793 31.785 66.6159 31.6667 66.6843 31.6667H73.5076L75.7193 38.3334ZM57.3109 25H68.2059C70.1143 25 71.6476 26.06 72.2142 27.7684L72.4026 28.3334H66.6843C64.9226 28.3334 63.3759 29.7084 63.1609 31.4634L62.3443 38.13C62.2868 38.5746 62.3244 39.0263 62.4546 39.4553C62.5847 39.8842 62.8045 40.2807 63.0993 40.6184C63.6893 41.2834 64.5476 41.665 65.4593 41.665H76.5826C76.6884 42.5598 76.6867 43.464 76.5776 44.3584L75.8859 49.9984H54.2476L57.3093 24.9984L57.3109 25ZM55.4776 56.6667H53.4309L53.8393 53.3334H58.1959C57.0239 54.1982 56.0889 55.3446 55.4776 56.6667ZM50.0742 56.6667H25.8426C25.5879 55.6516 25.0961 54.7115 24.4076 53.9234C24.2109 53.7017 23.9809 53.525 23.7609 53.3334H50.4842L50.0742 56.6667ZM11.7276 56.6667H7.80258C7.62137 56.6734 7.44085 56.6409 7.27342 56.5713C7.10598 56.5016 6.95559 56.3966 6.83258 56.2634C6.70997 56.1185 6.61964 55.9492 6.56763 55.7667C6.51561 55.5842 6.50309 55.3928 6.53092 55.205L6.76258 53.3334H14.4042C13.2399 54.1959 12.3175 55.344 11.7259 56.6667H11.7276ZM22.7209 58.9634C22.4309 61.3334 20.1893 63.3334 17.8259 63.3334C16.7593 63.3334 15.8193 62.9317 15.1726 62.2017C14.5159 61.4617 14.2292 60.455 14.3609 59.37C14.6526 57 16.8943 55 19.2576 55C20.3243 55 21.2659 55.4017 21.9109 56.1317C22.5676 56.8717 22.8543 57.8784 22.7209 58.9634ZM66.4559 58.9634C66.1643 61.3334 63.9226 63.3334 61.5609 63.3334C60.4943 63.3334 59.5526 62.9317 58.9059 62.2017C58.2493 61.4617 57.9626 60.455 58.0959 59.37C58.3876 57 60.6292 55 62.9909 55C64.0576 55 64.9993 55.4017 65.6459 56.1317C66.3026 56.8717 66.5893 57.8784 66.4559 58.9634ZM73.2109 56.6667H69.5776C69.3229 55.6516 68.8311 54.7115 68.1426 53.9234C67.9459 53.7017 67.7159 53.525 67.4959 53.3334H75.4792L75.2993 54.7967C75.1776 55.7934 74.2009 56.6667 73.2109 56.6667Z" fill="#EB235C"/>
<path d="M15.05 43.3336C15.05 42.8915 14.8744 42.4676 14.5618 42.1551C14.2493 41.8425 13.8254 41.6669 13.3833 41.6669H1.66667C1.22464 41.6669 0.800716 41.8425 0.488155 42.1551C0.175595 42.4676 0 42.8915 0 43.3336C0 43.7756 0.175595 44.1995 0.488155 44.5121C0.800716 44.8247 1.22464 45.0002 1.66667 45.0002H13.3833C13.8254 45.0002 14.2493 44.8247 14.5618 44.5121C14.8744 44.1995 15.05 43.7756 15.05 43.3336ZM6.81167 33.3336C6.36964 33.3336 5.94572 33.5092 5.63316 33.8217C5.32059 34.1343 5.145 34.5582 5.145 35.0002C5.145 35.4423 5.32059 35.8662 5.63316 36.1788C5.94572 36.4913 6.36964 36.6669 6.81167 36.6669H14.4133C14.8554 36.6669 15.2793 36.4913 15.5918 36.1788C15.9044 35.8662 16.08 35.4423 16.08 35.0002C16.08 34.5582 15.9044 34.1343 15.5918 33.8217C15.2793 33.5092 14.8554 33.3336 14.4133 33.3336H6.81167ZM3.625 28.3336H17.0917C17.5337 28.3336 17.9576 28.158 18.2702 27.8454C18.5827 27.5329 18.7583 27.1089 18.7583 26.6669C18.7583 26.2249 18.5827 25.801 18.2702 25.4884C17.9576 25.1758 17.5337 25.0002 17.0917 25.0002H3.625C3.18297 25.0002 2.75905 25.1758 2.44649 25.4884C2.13393 25.801 1.95833 26.2249 1.95833 26.6669C1.95833 27.1089 2.13393 27.5329 2.44649 27.8454C2.75905 28.158 3.18297 28.3336 3.625 28.3336Z" fill="#EB235C"/>
</g>
<defs>
<clipPath id="clip0_51_144">
<rect width="80" height="80" fill="white"/>
</clipPath>
</defs>
</svg>
