<svg width="80" height="80" viewBox="0 0 80 80" fill="none" xmlns="http://www.w3.org/2000/svg">
<path d="M37.6961 64.7889C37.9934 64.9546 38.328 65.0416 38.6684 65.0416C39.0087 65.0416 39.3434 64.9546 39.6406 64.7889L59.6495 53.2372C59.9451 53.0666 60.1906 52.8211 60.3612 52.5255C60.5319 52.2299 60.6218 51.8946 60.6218 51.5533V28.4475C60.6164 28.1072 60.5243 27.774 60.3542 27.4793C60.1841 27.1846 59.9415 26.9383 59.6495 26.7635L39.6406 15.2119C39.3449 15.0415 39.0097 14.9518 38.6684 14.9518C38.3271 14.9518 37.9918 15.0415 37.6961 15.2119L17.6859 26.7635C17.394 26.9383 17.1515 27.1847 16.9814 27.4794C16.8113 27.7741 16.7191 28.1073 16.7137 28.4475V51.5533C16.7137 51.8946 16.8035 52.2299 16.9742 52.5255C17.1449 52.8211 17.3903 53.0666 17.6859 53.2372L37.6961 64.7889ZM56.7328 50.4307L40.6129 59.737V41.1217L50.1967 35.589L50.207 35.5825L56.7328 31.8153V50.4307ZM38.6684 19.1411L54.7883 28.4488L49.2426 31.6507L33.1227 22.343L38.6684 19.1411ZM29.235 24.587L45.3549 33.8947L38.6684 37.7551L22.5472 28.4475L29.235 24.587ZM20.6014 31.8153L36.7239 41.123V59.737L20.6027 50.4294L20.6014 31.8153ZM31.0537 40.4956L26.6177 37.934C26.3964 37.8043 26.1517 37.7197 25.8977 37.6849C25.6436 37.6502 25.3852 37.6661 25.1372 37.7316C24.8893 37.7972 24.6568 37.9111 24.4531 38.0669C24.2494 38.2226 24.0785 38.4172 23.9503 38.6392C23.822 38.8613 23.739 39.1066 23.706 39.3609C23.6729 39.6152 23.6905 39.8735 23.7577 40.121C23.8249 40.3685 23.9403 40.6002 24.0975 40.8029C24.2546 41.0056 24.4502 41.1752 24.6732 41.3019L29.1092 43.8635C29.3304 43.9931 29.5751 44.0778 29.8292 44.1125C30.0833 44.1473 30.3417 44.1314 30.5897 44.0659C30.8376 44.0003 31.0701 43.8864 31.2738 43.7306C31.4775 43.5748 31.6484 43.3803 31.7766 43.1582C31.9048 42.9362 31.9879 42.6909 32.0209 42.4366C32.054 42.1823 32.0364 41.924 31.9692 41.6765C31.902 41.429 31.7865 41.1973 31.6294 40.9946C31.4723 40.7919 31.2766 40.6223 31.0537 40.4956ZM68.8379 58.8465C68.7467 58.3995 68.5073 57.9964 68.1583 57.7025C67.8094 57.4086 67.3715 57.2412 66.9155 57.2273L59.5134 57.2507C59.258 57.2511 59.0053 57.3018 58.7695 57.3999C58.5338 57.498 58.3197 57.6416 58.1394 57.8225C57.9591 58.0034 57.8163 58.218 57.7189 58.454C57.6216 58.6901 57.5717 58.9431 57.5721 59.1984C57.5726 59.4538 57.6233 59.7065 57.7214 59.9423C57.8195 60.1781 57.9631 60.3922 58.144 60.5724C58.3248 60.7527 58.5394 60.8956 58.7755 60.9929C59.0116 61.0902 59.2645 61.1401 59.5199 61.1397H59.5251L62.8281 61.1293C57.5681 66.8063 50.381 70.3191 42.6701 70.9817C34.9592 71.6443 27.2781 69.4091 21.1267 64.7127C14.9753 60.0162 10.7951 53.1956 9.40237 45.5827C8.00965 37.9697 9.50438 30.1109 13.5947 23.5408C13.73 23.3243 13.8214 23.0832 13.8636 22.8314C13.9057 22.5795 13.8979 22.3218 13.8405 22.073C13.7831 21.8242 13.6772 21.5891 13.5289 21.3812C13.3807 21.1733 13.1929 20.9967 12.9764 20.8613C12.7598 20.726 12.5187 20.6346 12.2669 20.5925C12.015 20.5503 11.7573 20.5581 11.5085 20.6155C11.2597 20.673 11.0246 20.7788 10.8167 20.9271C10.6088 21.0754 10.4322 21.2631 10.2968 21.4797C5.68697 28.8748 4.00165 37.7237 5.5705 46.2956C7.13935 54.8675 11.8495 62.5459 18.7798 67.8289C25.71 73.1119 34.3619 75.6196 43.0431 74.8615C51.7244 74.1034 59.8106 70.134 65.7202 63.7298L66.2569 66.9006C66.3337 67.353 66.568 67.7637 66.9184 68.06C67.2688 68.3563 67.7127 68.5191 68.1716 68.5197C68.2815 68.5201 68.3912 68.5109 68.4996 68.4925C68.7514 68.4498 68.9923 68.3579 69.2086 68.2221C69.4248 68.0862 69.6122 67.9091 69.7601 67.7009C69.9079 67.4926 70.0132 67.2573 70.0701 67.0083C70.127 66.7593 70.1342 66.5016 70.0915 66.2498L68.8379 58.8465ZM40.001 4.99939C32.1943 4.97842 24.6084 7.58985 18.4689 12.4118L18.478 9.32266C18.4787 9.0672 18.429 8.8141 18.3318 8.57784C18.2347 8.34158 18.0919 8.12678 17.9117 7.94572C17.7315 7.76465 17.5173 7.62088 17.2815 7.52261C17.0457 7.42433 16.7928 7.37349 16.5374 7.37298H16.5322C16.0174 7.37298 15.5236 7.57713 15.1591 7.94067C14.7945 8.30422 14.5891 8.79748 14.5877 9.31229L14.567 16.7156C14.5753 17.1821 14.747 17.6308 15.0521 17.9837C15.3571 18.3367 15.7763 18.5714 16.2366 18.6472L23.6387 19.705C23.7307 19.7172 23.8233 19.7233 23.9161 19.7231C24.4078 19.7226 24.8811 19.5358 25.2406 19.2003C25.6002 18.8649 25.8192 18.4056 25.8537 17.9151C25.8883 17.4246 25.7356 16.9392 25.4266 16.5567C25.1176 16.1742 24.6752 15.923 24.1883 15.8536L20.9669 15.3934C26.4276 11.1752 33.1354 8.89141 40.0355 8.90124C46.9357 8.91107 53.6369 11.2139 59.0855 15.4477C64.5342 19.6815 68.4211 25.606 70.1354 32.2899C71.8496 38.9737 71.2938 46.0378 68.5553 52.3713C68.448 52.6064 68.3887 52.8606 68.3808 53.1189C68.3729 53.3773 68.4166 53.6346 68.5093 53.8759C68.602 54.1171 68.7419 54.3375 68.9207 54.5241C69.0996 54.7107 69.3138 54.8597 69.551 54.9625C69.7881 55.0653 70.0434 55.1198 70.3018 55.1228C70.5603 55.1258 70.8167 55.0772 71.0562 54.98C71.2957 54.8827 71.5133 54.7387 71.6965 54.5563C71.8796 54.3739 72.0246 54.1569 72.1228 53.9178C74.4264 48.5916 75.3702 42.7763 74.8693 36.9949C74.3685 31.2135 72.4387 25.6472 69.2535 20.7965C66.0683 15.9457 61.7275 11.9626 56.6214 9.20516C51.5154 6.44775 45.8041 5.00252 40.001 4.99939Z" fill="#EB235C"/>
</svg>
