<svg width="80" height="80" viewBox="0 0 80 80" fill="none" xmlns="http://www.w3.org/2000/svg">
<g clip-path="url(#clip0_51_163)">
<path d="M34.92 79.62C34.5587 79.6196 34.2049 79.5164 33.9 79.3225L22.14 71.855C8.275 63.0475 0 47.9975 0 31.595V11.81C0 10.9675 0.555 10.2225 1.365 9.98498L34.38 0.204984C34.7325 0.100943 35.1075 0.100943 35.46 0.204984L68.4775 9.98498C68.8711 10.1015 69.2164 10.3422 69.462 10.6711C69.7076 11 69.8402 11.3995 69.84 11.81V31.595C69.84 32.645 68.99 33.5125 67.935 33.5125C66.88 33.5125 66.0325 32.67 66.0325 31.62V13.23L34.92 4.01748L3.81 13.23V31.595C3.81 46.685 11.425 60.535 24.185 68.64L34.9175 75.455L36.005 74.765C36.2154 74.6299 36.4504 74.5377 36.6966 74.4937C36.9427 74.4497 37.1952 74.4548 37.4393 74.5087C37.6835 74.5626 37.9146 74.6642 38.1194 74.8078C38.3242 74.9513 38.4985 75.1339 38.6325 75.345C38.7673 75.5555 38.8592 75.7905 38.903 76.0366C38.9468 76.2827 38.9416 76.535 38.8877 76.7791C38.8339 77.0232 38.7324 77.2542 38.589 77.459C38.4457 77.6638 38.2634 77.8383 38.0525 77.9725L35.945 79.32C35.6393 79.5166 35.2834 79.6207 34.92 79.62Z" fill="#EB235C"/>
<path d="M30.3249 64.6599C29.951 64.6605 29.5845 64.5556 29.2674 64.3574L27.5674 63.2649C16.6724 56.3749 10.1599 44.5324 10.1599 31.5949V19.3749C10.1599 18.5299 10.7149 17.7874 11.5224 17.5474L34.3799 10.7899C34.7324 10.6859 35.1074 10.6859 35.4599 10.7899L58.3174 17.5474C58.711 17.6642 59.0565 17.9049 59.3024 18.2337C59.5483 18.5625 59.6816 18.9619 59.6824 19.3724V29.7124C59.6824 30.2177 59.4817 30.7022 59.1245 31.0595C58.7672 31.4167 58.2827 31.6174 57.7774 31.6174C57.2722 31.6174 56.7876 31.4167 56.4304 31.0595C56.0731 30.7022 55.8724 30.2177 55.8724 29.7124V20.7999L34.9224 14.6074L13.9649 20.7999V31.5949C13.9649 43.2199 19.8149 53.8574 29.6099 60.0549L31.2499 61.1049C31.8249 61.4324 32.2149 62.0474 32.2149 62.7549C32.2149 63.8049 31.3724 64.6599 30.3224 64.6599H30.3249Z" fill="#EB235C"/>
<path d="M57.7774 79.875C45.5224 79.875 35.5549 69.905 35.5549 57.65C35.5549 45.395 45.5224 35.4275 57.7799 35.4275C70.0374 35.4275 79.9999 45.4 79.9999 57.6525C79.9999 69.905 70.0324 79.8725 57.7774 79.8725V79.875ZM57.7774 39.2375C47.6249 39.2375 39.3649 47.4975 39.3649 57.65C39.3649 67.8025 47.6249 76.0625 57.7774 76.0625C67.9299 76.0625 76.1899 67.805 76.1899 57.65C76.1899 47.495 67.9324 39.2375 57.7774 39.2375Z" fill="#EB235C"/>
<path d="M57.7775 68.5499C56.2131 68.548 54.7133 67.9258 53.6069 66.8198C52.5005 65.7139 51.8777 64.2143 51.875 62.6499C51.875 62.1447 52.0757 61.6602 52.433 61.3029C52.7902 60.9456 53.2748 60.7449 53.78 60.7449C54.2852 60.7449 54.7698 60.9456 55.127 61.3029C55.4843 61.6602 55.685 62.1447 55.685 62.6499C55.685 63.7999 56.625 64.7424 57.7775 64.7424C58.93 64.7424 59.87 63.8024 59.87 62.6474V62.0174C59.8712 61.4804 59.6923 60.9586 59.3619 60.5352C59.0315 60.1119 58.5687 59.8117 58.0475 59.6824L56.5825 59.3149C55.2367 58.9798 54.0419 58.2037 53.1887 57.1103C52.3355 56.0169 51.873 54.6693 51.875 53.2824V52.6524C51.875 49.3999 54.525 46.7524 57.7775 46.7524C61.03 46.7524 63.68 49.3999 63.68 52.6524C63.68 53.1577 63.4793 53.6422 63.122 53.9995C62.7648 54.3567 62.2802 54.5574 61.775 54.5574C61.2698 54.5574 60.7852 54.3567 60.428 53.9995C60.0707 53.6422 59.87 53.1577 59.87 52.6524C59.87 51.4999 58.93 50.5599 57.7775 50.5599C56.625 50.5599 55.685 51.4999 55.685 52.6524V53.2824C55.685 54.3924 56.435 55.3524 57.5075 55.6199L58.9725 55.9874C60.3179 56.3225 61.5123 57.0982 62.3655 58.1911C63.2187 59.284 63.6814 60.631 63.68 62.0174V62.6474C63.678 64.2118 63.0559 65.7116 61.9499 66.8181C60.8439 67.9245 59.3419 68.5473 57.7775 68.5499Z" fill="#EB235C"/>
<path d="M57.7776 71.8225C57.2723 71.8225 56.7878 71.6218 56.4305 71.2645C56.0733 70.9073 55.8726 70.4227 55.8726 69.9175V66.6475C55.8726 66.1422 56.0733 65.6577 56.4305 65.3004C56.7878 64.9432 57.2723 64.7425 57.7776 64.7425C58.2828 64.7425 58.7673 64.9432 59.1246 65.3004C59.4818 65.6577 59.6826 66.1422 59.6826 66.6475V69.9175C59.6826 70.9675 58.8301 71.8225 57.7776 71.8225ZM57.7776 50.56C57.2723 50.56 56.7878 50.3593 56.4305 50.002C56.0733 49.6448 55.8726 49.1602 55.8726 48.655V45.385C55.8726 44.8797 56.0733 44.3952 56.4305 44.0379C56.7878 43.6807 57.2723 43.48 57.7776 43.48C58.2828 43.48 58.7673 43.6807 59.1246 44.0379C59.4818 44.3952 59.6826 44.8797 59.6826 45.385V48.655C59.6826 49.705 58.8301 50.56 57.7776 50.56Z" fill="#EB235C"/>
</g>
<defs>
<clipPath id="clip0_51_163">
<rect width="80" height="80" fill="white"/>
</clipPath>
</defs>
</svg>
