<svg width="171" height="32" viewBox="0 0 171 32" fill="none" xmlns="http://www.w3.org/2000/svg">
<path d="M2.96497 10.6686C3.44413 14.7401 7.13884 18.309 11.6302 18.309C16.4473 18.309 20.3516 14.2057 20.3516 9.77766C20.3516 9.73986 20.3491 9.70306 20.3486 9.66676C15.379 8.99223 9.04774 12.6031 2.96497 10.6686Z" fill="#EB235C"/>
<path d="M20.0746 0.188843L20.1176 0.275757C20.1233 0.283047 20.1317 0.292026 20.141 0.304078C20.1634 0.333224 20.1957 0.376587 20.2367 0.432987C20.3186 0.545757 20.4347 0.712387 20.5736 0.930057C20.8517 1.36556 21.2211 2.0064 21.5902 2.83045C22.3285 4.47845 23.0668 6.86263 23.0668 9.80993C23.0666 15.3913 18.3489 20.5639 12.3861 20.972C12.4232 22.5196 12.5083 24.0837 12.6762 25.4076C12.7633 26.0949 12.8725 26.7142 13.0072 27.2308C13.1427 27.7505 13.301 28.1529 13.4799 28.4164C13.7237 28.7755 14.1289 29.0122 14.6332 29.1849C15.138 29.3578 15.7122 29.4575 16.2738 29.5648C16.8239 29.6698 17.3721 29.7828 17.7816 29.9886C17.9893 30.093 18.1725 30.2272 18.3041 30.4056C18.4378 30.5869 18.5102 30.8041 18.5102 31.0599V31.2484H4.74646V31.0599C4.74646 30.8041 4.81885 30.5869 4.95251 30.4056C5.08406 30.2273 5.26748 30.0939 5.47498 29.9896C5.88438 29.7838 6.43198 29.6699 6.98178 29.5648C7.54328 29.4575 8.11778 29.3578 8.62248 29.1849C9.12648 29.0121 9.53198 28.7756 9.77578 28.4164C9.95468 28.1529 10.1129 27.7506 10.2484 27.2308C10.3831 26.7141 10.4923 26.0949 10.5795 25.4076C10.7474 24.0836 10.8305 22.5194 10.8676 20.972C4.90396 20.5627 0.189023 15.3908 0.188843 9.80993C0.188843 6.865 0.926233 4.48015 1.66443 2.83142C2.03354 2.00705 2.4031 1.36589 2.68103 0.930057C2.81989 0.712317 2.93609 0.545787 3.01794 0.432987C3.05889 0.376557 3.09126 0.333226 3.11365 0.304078C3.12482 0.289533 3.134 0.278495 3.14001 0.270875C3.14295 0.267158 3.14523 0.264112 3.14685 0.262085L3.1488 0.259156L3.14978 0.258179L3.20642 0.188843H20.0746ZM4.47107 2.01795C4.40416 2.11014 4.30785 2.249 4.19177 2.43103C3.95957 2.79516 3.64835 3.33384 3.33728 4.02869C2.71512 5.41847 2.09216 7.4308 2.09216 9.91733C2.09384 10.2414 2.11407 10.5652 2.15271 10.8871L2.21228 11.3031C2.92966 15.5755 6.87158 19.2395 11.6273 19.2396C16.8933 19.2396 21.1623 14.7493 21.1625 9.91733C21.1625 9.90043 21.1623 9.88293 21.1615 9.86263L21.1586 9.79533C21.1381 7.3432 20.517 5.3612 19.9008 3.99353C19.5927 3.30991 19.2857 2.78034 19.057 2.42224C18.9427 2.2432 18.8475 2.10673 18.7816 2.01599C18.7639 1.99149 18.7481 1.97036 18.7348 1.95252H4.5199C4.50615 1.97087 4.48954 1.9925 4.47107 2.01795Z" fill="#1C1826" stroke="#1C1826" stroke-width="0.37763"/>
<path d="M39.9132 29.3674L30.4799 6.93525H27.9915V3.96411H40.7303V6.93525H36.8678L44.7413 25.9877H42.8101L50.795 6.93525H46.9697V3.96411H57.2573V6.93525H54.8061L45.3356 29.3674H39.9132Z" fill="#1C1826"/>
<path d="M56.5928 29.2931V26.3591H59.4897V12.8404H56.8528V9.90638H65.172V26.3591H67.7346V29.2931H56.5928ZM62.1266 8.08656C61.0867 8.08656 60.2325 7.80183 59.564 7.23236C58.9202 6.66289 58.5983 5.88297 58.5983 4.89259C58.5983 3.90221 58.9202 3.12228 59.564 2.55282C60.2325 1.98335 61.0867 1.69861 62.1266 1.69861C63.1665 1.69861 64.0083 1.98335 64.652 2.55282C65.3206 3.12228 65.6548 3.90221 65.6548 4.89259C65.6548 5.88297 65.3206 6.66289 64.652 7.23236C64.0083 7.80183 63.1665 8.08656 62.1266 8.08656Z" fill="#1C1826"/>
<path d="M82.6361 29.2931V26.3591H84.6787V16.4058C84.6787 15.3906 84.394 14.6355 83.8245 14.1403C83.255 13.6451 82.4751 13.3975 81.4847 13.3975C80.8162 13.3975 80.1972 13.5461 79.6278 13.8432C79.0583 14.1155 78.5879 14.5612 78.2165 15.1802C77.8698 15.7992 77.6965 16.6286 77.6965 17.6685H76.6566C76.6566 15.9601 76.8795 14.5117 77.3251 13.3232C77.7708 12.11 78.5136 11.1939 79.5535 10.5749C80.5934 9.93115 81.9923 9.60925 83.7502 9.60925C85.6815 9.60925 87.2661 10.1416 88.5041 11.2063C89.742 12.2462 90.361 13.9174 90.361 16.2201V26.3591H92.5894V29.2931H82.6361ZM69.0431 29.2931V26.3591H71.9399V12.8404H69.3031V9.90635H76.9909V16.4801L77.6965 16.4058V26.3591H79.7392V29.2931H69.0431Z" fill="#1C1826"/>
<path d="M103.793 29.7388C101.293 29.7388 99.4845 28.9836 98.3705 27.4733C97.2565 25.9629 96.7735 23.9574 96.9225 21.4567L97.3675 13.1004H92.4283V10.1664H93.3197C94.7557 10.1664 95.8825 9.99307 96.6995 9.64637C97.5165 9.29977 98.0985 8.77982 98.4445 8.08655C98.7915 7.36853 98.9645 6.46481 98.9645 5.37539V4.8183H102.568V22.7566C102.568 23.5737 102.754 24.2174 103.125 24.6878C103.521 25.1583 104.103 25.3935 104.87 25.3935C105.663 25.3935 106.245 25.1706 106.616 24.725C106.987 24.2545 107.173 23.5984 107.173 22.7566V18.5599H110.701V22.7566C110.701 24.8859 110.132 26.5819 108.993 27.8447C107.854 29.1074 106.121 29.7388 103.793 29.7388ZM102.568 13.1004V9.90637H111.147V13.1004H102.568Z" fill="#1C1826"/>
<path d="M118.005 16.8886C117.139 16.8886 116.359 16.6534 115.666 16.1829C114.997 15.7125 114.663 14.9945 114.663 14.0289C114.663 13.0385 115.071 12.209 115.888 11.5405C116.705 10.872 117.782 10.3768 119.119 10.055C120.457 9.70827 121.868 9.53497 123.353 9.53497C125.805 9.53497 127.686 10.0302 128.999 11.0206C130.336 12.011 130.992 13.5089 130.967 15.5144L125.656 14.8459C125.656 13.9298 125.334 13.2613 124.69 12.8404C124.071 12.3947 123.205 12.1719 122.091 12.1719C121.397 12.1719 120.716 12.2586 120.048 12.4319C119.404 12.6052 118.86 12.8775 118.414 13.2489C117.993 13.6203 117.721 14.1279 117.597 14.7717L117.671 12.2833C118.661 12.3081 119.441 12.5062 120.011 12.8775C120.58 13.2242 120.853 13.7813 120.828 14.5488C120.803 15.2421 120.543 15.8115 120.048 16.2572C119.578 16.6781 118.897 16.8886 118.005 16.8886ZM131.933 29.7388C130.051 29.7388 128.627 29.2312 127.662 28.2161C126.696 27.2009 126.213 25.7773 126.213 23.945V23.0908H125.582V18.4113H125.396L125.656 16.5543V14.8459L130.967 15.5144V24.4279C130.967 24.923 131.091 25.344 131.338 25.6906C131.611 26.0125 131.994 26.1734 132.49 26.1734C132.985 26.1734 133.356 26.0125 133.604 25.6906C133.876 25.344 134.012 24.923 134.012 24.4279V18.7827H137.541V24.0193C137.541 25.7772 137.07 27.1762 136.129 28.2161C135.213 29.2312 133.814 29.7388 131.933 29.7388ZM119.528 29.7016C117.597 29.7016 116.025 29.2312 114.811 28.2903C113.623 27.3495 113.029 26.0744 113.029 24.465C113.029 23.3261 113.276 22.3728 113.771 21.6053C114.267 20.8377 114.96 20.2187 115.851 19.7483C116.743 19.2779 117.782 18.9065 118.971 18.6341L122.313 17.8171C123.007 17.6438 123.601 17.4457 124.096 17.2228C124.616 16.9752 125 16.6658 125.247 16.2944C125.52 15.8982 125.656 15.4154 125.656 14.8459L125.73 18.4113H125.582C125.408 18.857 125.099 19.216 124.653 19.4883C124.232 19.7607 123.688 19.9959 123.019 20.194L121.979 20.4911C121.36 20.6892 120.816 20.8996 120.345 21.1225C119.875 21.3453 119.516 21.63 119.268 21.9767C119.02 22.2985 118.897 22.7442 118.897 23.3137C118.897 24.0812 119.157 24.6631 119.677 25.0592C120.221 25.4554 120.939 25.6535 121.831 25.6535C122.474 25.6535 123.081 25.5173 123.65 25.2449C124.22 24.9726 124.678 24.5145 125.025 23.8708C125.396 23.227 125.582 22.3728 125.582 21.3082L126.807 21.4196C126.807 23.4003 126.485 24.9973 125.842 26.2105C125.198 27.4238 124.319 28.3151 123.205 28.8846C122.091 29.4293 120.865 29.7016 119.528 29.7016Z" fill="#1C1826"/>
<path d="M138.234 29.2931V26.3591H141.021V5.70963H138.458V2.77563H146.777V26.3591H149.303V29.2931H138.234Z" fill="#1C1826"/>
<path d="M160.794 29.7387C158.813 29.7387 157.067 29.3425 155.557 28.5502C154.047 27.7579 152.858 26.619 151.991 25.1334C151.15 23.6231 150.729 21.7785 150.729 19.5997C150.729 17.4208 151.15 15.5886 151.991 14.103C152.833 12.5927 153.997 11.4414 155.483 10.6491C156.993 9.85683 158.701 9.46063 160.608 9.46063L160.756 12.4689C159.84 12.4689 159.048 12.7041 158.379 13.1746C157.736 13.6202 157.241 14.3383 156.894 15.3286C156.547 16.319 156.374 17.6065 156.374 19.1911C156.374 21.1471 156.857 22.6946 157.822 23.8335C158.788 24.9725 160.113 25.5419 161.796 25.5419C162.787 25.5419 163.604 25.381 164.247 25.0591C164.891 24.7372 165.399 24.3163 165.77 23.7964C166.166 23.2764 166.463 22.7317 166.661 22.1623H170.115C170.041 23.0784 169.794 23.9945 169.373 24.9106C168.952 25.8019 168.358 26.619 167.59 27.3618C166.847 28.0798 165.906 28.6616 164.767 29.1073C163.628 29.5282 162.304 29.7387 160.794 29.7387ZM153.366 19.7482V16.9628H164.619L170.264 18.3741V19.7482H153.366ZM164.619 16.9628C164.594 16.1457 164.433 15.4029 164.136 14.7344C163.839 14.0411 163.406 13.4964 162.836 13.1003C162.291 12.6794 161.598 12.4689 160.756 12.4689L160.608 9.46063C162.712 9.46063 164.483 9.84443 165.919 10.612C167.355 11.3547 168.432 12.3946 169.15 13.7317C169.893 15.0687 170.264 16.6161 170.264 18.3741L164.619 16.9628Z" fill="#1C1826"/>
</svg>
