<svg width="175" height="175" viewBox="0 0 175 175" fill="none" xmlns="http://www.w3.org/2000/svg">
<path d="M87.5 0L106.482 22.8542L134.806 13.8903L138.419 43.3788L167.093 51.1512L154.189 77.9115L174.109 99.9525L148.786 115.489L153.628 144.8L123.926 144.179L112.152 171.456L87.5 154.875L62.8484 171.456L51.0743 144.179L21.3719 144.8L26.2135 115.489L0.890625 99.9525L20.8108 77.9115L7.9072 51.1512L36.5814 43.3788L40.1939 13.8903L68.5183 22.8542L87.5 0Z" fill="#FECB3F"/>
<path d="M38.8093 88.758C38.8093 86.2433 39.1773 84.0813 39.9133 82.272C40.68 80.432 41.784 78.868 43.2253 77.58C44.6666 76.2613 46.384 75.142 48.3773 74.222L51.0453 72.934C51.7813 72.5967 52.4713 72.2287 53.1153 71.83C53.79 71.4007 54.388 70.9407 54.9093 70.45C55.4613 69.9593 55.8753 69.4073 56.1513 68.794C56.458 68.15 56.6113 67.4293 56.6113 66.632L63.7413 67.552C63.7413 69.1467 63.45 70.5573 62.8673 71.784C62.2846 72.98 61.472 74.0073 60.4293 74.866C59.4173 75.7247 58.252 76.4607 56.9333 77.074C55.6146 77.6873 54.2193 78.2087 52.7473 78.638L50.1713 79.466C48.8526 79.8953 47.718 80.3553 46.7673 80.846C45.8166 81.306 45.0346 81.812 44.4213 82.364C43.8386 82.916 43.3786 83.5447 43.0413 84.25L38.8093 90V88.758ZM38.8093 90V88.758L43.0413 84.25H63.6493V90H38.8093ZM56.0593 84.25C57.47 84.25 58.4206 83.974 58.9113 83.422C59.402 82.8393 59.6473 81.7967 59.6473 80.294V79.42H63.6493V84.25H56.0593ZM43.7773 70.818C43.0106 70.818 42.29 70.6493 41.6153 70.312C40.9713 69.944 40.4346 69.4227 40.0053 68.748C39.6066 68.0427 39.4073 67.23 39.4073 66.31C39.4073 64.654 39.944 63.228 41.0173 62.032C42.0906 60.8053 43.5473 59.8547 45.3873 59.18C47.258 58.5053 49.3586 58.168 51.6893 58.168C53.8973 58.168 55.906 58.5053 57.7153 59.18C59.5553 59.824 61.012 60.836 62.0853 62.216C63.1893 63.596 63.7413 65.3747 63.7413 67.552L56.6113 66.632C56.6113 65.62 56.3506 64.7767 55.8293 64.102C55.308 63.3967 54.5873 62.8753 53.6673 62.538C52.7473 62.17 51.674 61.986 50.4473 61.986C49.19 61.986 48.0553 62.1393 47.0433 62.446C46.062 62.722 45.2493 63.136 44.6053 63.688C43.9613 64.24 43.532 64.8993 43.3173 65.666L43.0873 64.332C44.4673 64.3013 45.556 64.5773 46.3533 65.16C47.1506 65.712 47.5493 66.494 47.5493 67.506C47.5493 68.4567 47.2273 69.254 46.5833 69.898C45.9393 70.5113 45.004 70.818 43.7773 70.818ZM80.8795 90.46C78.3649 90.46 76.1875 90.0307 74.3475 89.172C72.5382 88.2827 71.1429 87.0713 70.1615 85.538C69.1802 83.974 68.6742 82.1493 68.6435 80.064H72.5535C72.7069 80.9227 73.0442 81.7507 73.5655 82.548C74.0869 83.3453 74.8229 83.9893 75.7735 84.48C76.7549 84.9707 77.9509 85.216 79.3615 85.216C80.8029 85.216 81.9989 84.9707 82.9495 84.48C83.9309 83.9587 84.6669 83.2687 85.1575 82.41C85.6789 81.5207 85.9395 80.524 85.9395 79.42C85.9395 78.316 85.6635 77.35 85.1115 76.522C84.5595 75.694 83.7929 75.05 82.8115 74.59C81.8609 74.13 80.7415 73.9 79.4535 73.9C77.9509 73.9 76.7089 74.176 75.7275 74.728C74.7769 75.2493 74.0409 75.8627 73.5195 76.568L71.9095 75.05C72.5229 73.854 73.2895 72.8113 74.2095 71.922C75.1295 71.0327 76.2489 70.3273 77.5675 69.806C78.8862 69.2847 80.4349 69.024 82.2135 69.024C84.0842 69.024 85.8475 69.4073 87.5035 70.174C89.1595 70.91 90.4935 72.0447 91.5055 73.578C92.5482 75.1113 93.0695 77.0433 93.0695 79.374C93.0695 81.582 92.5789 83.5293 91.5975 85.216C90.6162 86.872 89.2209 88.16 87.4115 89.08C85.6022 90 83.4249 90.46 80.8795 90.46ZM69.4715 76.568L71.0815 58.628H75.0835L73.7495 75.326L73.5195 76.568H69.4715ZM73.9335 64.286L71.0815 58.628H91.3675V64.286H73.9335ZM87.3655 66.816C87.3655 65.896 87.1355 65.252 86.6755 64.884C86.2462 64.4853 85.4029 64.286 84.1455 64.286H91.3675V67.46H87.3655V66.816ZM103.416 90L126.462 58.628H132.074L109.028 90H103.416ZM106.544 73.118C104.827 73.118 103.309 72.8267 101.99 72.244C100.671 71.6307 99.6286 70.772 98.8619 69.668C98.0953 68.564 97.7119 67.23 97.7119 65.666C97.7119 64.102 98.0953 62.768 98.8619 61.664C99.6286 60.5293 100.671 59.6707 101.99 59.088C103.309 58.4747 104.827 58.168 106.544 58.168C109.151 58.168 111.267 58.8273 112.892 60.146C114.548 61.4647 115.376 63.3047 115.376 65.666C115.376 67.9967 114.548 69.8213 112.892 71.14C111.267 72.4587 109.151 73.118 106.544 73.118ZM106.544 69.806C107.587 69.806 108.415 69.438 109.028 68.702C109.641 67.966 109.948 66.908 109.948 65.528C109.948 64.24 109.641 63.2433 109.028 62.538C108.415 61.8327 107.587 61.48 106.544 61.48C105.501 61.48 104.673 61.848 104.06 62.584C103.477 63.32 103.186 64.3473 103.186 65.666C103.186 66.9847 103.477 68.012 104.06 68.748C104.673 69.4533 105.501 69.806 106.544 69.806ZM128.946 90.46C126.37 90.46 124.254 89.8007 122.598 88.482C120.973 87.1327 120.16 85.2927 120.16 82.962C120.16 80.6007 120.973 78.776 122.598 77.488C124.254 76.1693 126.37 75.51 128.946 75.51C131.553 75.51 133.684 76.1693 135.34 77.488C136.996 78.8067 137.824 80.6313 137.824 82.962C137.824 85.3233 136.996 87.1633 135.34 88.482C133.684 89.8007 131.553 90.46 128.946 90.46ZM128.946 87.148C130.019 87.148 130.847 86.78 131.43 86.044C132.043 85.2773 132.35 84.204 132.35 82.824C132.35 81.536 132.043 80.5547 131.43 79.88C130.847 79.1747 130.019 78.822 128.946 78.822C127.903 78.822 127.075 79.19 126.462 79.926C125.879 80.6313 125.588 81.6587 125.588 83.008C125.588 84.296 125.879 85.308 126.462 86.044C127.075 86.78 127.903 87.148 128.946 87.148Z" fill="#32260E"/>
<path d="M67.4229 119.48C65.0629 119.48 63.0029 119.06 61.2429 118.22C59.4829 117.38 58.1129 116.17 57.1329 114.59C56.1529 112.99 55.6629 111.05 55.6629 108.77C55.6629 106.49 56.1529 104.56 57.1329 102.98C58.1129 101.38 59.4829 100.17 61.2429 99.35C63.0029 98.51 65.0629 98.09 67.4229 98.09C69.7829 98.09 71.8429 98.51 73.6029 99.35C75.3629 100.17 76.7229 101.38 77.6829 102.98C78.6629 104.56 79.1529 106.49 79.1529 108.77C79.1529 111.05 78.6629 112.99 77.6829 114.59C76.7229 116.17 75.3629 117.38 73.6029 118.22C71.8429 119.06 69.7829 119.48 67.4229 119.48ZM67.3929 116.78C68.7329 116.78 69.8829 116.47 70.8429 115.85C71.8029 115.21 72.5329 114.3 73.0329 113.12C73.5329 111.92 73.7829 110.47 73.7829 108.77C73.7829 107.05 73.5329 105.6 73.0329 104.42C72.5329 103.22 71.8029 102.31 70.8429 101.69C69.8829 101.07 68.7429 100.76 67.4229 100.76C66.1029 100.76 64.9629 101.07 64.0029 101.69C63.0429 102.31 62.3029 103.22 61.7829 104.42C61.2829 105.6 61.0329 107.05 61.0329 108.77C61.0329 110.47 61.2829 111.92 61.7829 113.12C62.3029 114.3 63.0429 115.21 64.0029 115.85C64.9629 116.47 66.0929 116.78 67.3929 116.78ZM80.4493 119V116.6H82.9093V100.94H80.5093V98.54H87.7393V116.6H91.0393V119H80.4493ZM87.7393 101.09V98.54H99.6793V101.09H87.7393ZM87.7393 109.85V107.3H94.1893V109.85H87.7393ZM96.9793 104.18C96.9793 103.08 96.7693 102.29 96.3493 101.81C95.9493 101.33 95.2393 101.09 94.2193 101.09H99.6793V106.04H96.9793V104.18ZM88.9393 107.3C89.8993 107.3 90.5793 107.07 90.9793 106.61C91.3993 106.15 91.6093 105.41 91.6093 104.39V103.49H94.1893V107.3H88.9393ZM91.6093 112.79C91.6093 111.75 91.3993 111 90.9793 110.54C90.5793 110.08 89.8993 109.85 88.9393 109.85H94.1893V114.2H91.6093V112.79ZM101.053 119V116.6H103.513V100.94H101.113V98.54H108.343V116.6H111.643V119H101.053ZM108.343 101.09V98.54H120.283V101.09H108.343ZM108.343 109.85V107.3H114.793V109.85H108.343ZM117.583 104.18C117.583 103.08 117.373 102.29 116.953 101.81C116.553 101.33 115.843 101.09 114.823 101.09H120.283V106.04H117.583V104.18ZM109.543 107.3C110.503 107.3 111.183 107.07 111.583 106.61C112.003 106.15 112.213 105.41 112.213 104.39V103.49H114.793V107.3H109.543ZM112.213 112.79C112.213 111.75 112.003 111 111.583 110.54C111.183 110.08 110.503 109.85 109.543 109.85H114.793V114.2H112.213V112.79Z" fill="#32260E"/>
</svg>
